<svg width="280" height="255" viewBox="0 0 280 255" fill="none" xmlns="http://www.w3.org/2000/svg">
<path d="M7.33068 105.936C11.0307 109.636 15.8996 111.939 21.1074 112.452C26.3152 112.964 31.5396 111.655 35.8904 108.748L19.7859 124.849C15.8162 128.819 13.4651 134.124 13.1899 139.732C12.9147 145.34 14.735 150.85 18.2969 155.19C21.8588 159.53 26.9076 162.39 32.4614 163.214C38.0152 164.038 43.677 162.767 48.3456 159.648L39.8959 168.096C35.9262 172.067 33.5751 177.372 33.2999 182.98C33.0247 188.587 34.8451 194.097 38.407 198.437C41.9688 202.777 47.0176 205.638 52.5714 206.462C58.1252 207.286 63.787 206.015 68.4556 202.896L66.3909 204.96C64.2713 207.056 62.5869 209.55 61.4346 212.299C60.2823 215.048 59.6848 217.998 59.6765 220.979C59.6681 223.96 60.2491 226.913 61.386 229.669C62.5229 232.425 64.1933 234.928 66.3012 237.036C68.409 239.144 70.9127 240.814 73.6683 241.951C76.424 243.088 79.3771 243.669 82.3581 243.661C85.339 243.652 88.2889 243.055 91.0381 241.903C93.7873 240.75 96.2816 239.066 98.3776 236.946L119.812 215.515C116.692 220.183 115.42 225.845 116.244 231.4C117.068 236.954 119.928 242.003 124.268 245.566C128.609 249.128 134.119 250.948 139.727 250.673C145.336 250.397 150.641 248.046 154.611 244.075L187.177 211.509C184.058 216.178 182.787 221.84 183.611 227.393C184.435 232.947 187.295 237.996 191.635 241.558C195.975 245.12 201.485 246.94 207.093 246.665C212.701 246.39 218.006 244.039 221.976 240.069L272.671 189.37C276.641 185.4 278.992 180.095 279.267 174.487C279.542 168.879 277.722 163.369 274.16 159.029C270.598 154.689 265.549 151.829 259.995 151.005C254.441 150.181 248.78 151.452 244.111 154.57L254.724 143.958C258.695 139.988 261.047 134.682 261.323 129.074C261.599 123.465 259.779 117.955 256.216 113.614C252.654 109.273 247.604 106.413 242.049 105.59C236.495 104.766 230.833 106.039 226.164 109.159L247.597 87.7257C251.567 83.7551 253.918 78.4501 254.194 72.8423C254.469 67.2344 252.648 61.7247 249.086 57.3845C245.525 53.0444 240.476 50.1842 234.922 49.3602C229.368 48.5361 223.706 49.8072 219.038 52.9261L232.687 39.2773C236.914 35.0324 239.284 29.2843 239.277 23.2941C239.271 17.3039 236.888 11.5609 232.653 7.32518C228.417 3.08942 222.674 0.706848 216.684 0.700209C210.694 0.693571 204.946 3.06341 200.701 7.28977L170.3 37.6936C173.417 33.0254 174.686 27.3651 173.862 21.813C173.037 16.2608 170.178 11.2137 165.839 7.65253C161.501 4.0914 155.993 2.27077 150.386 2.54456C144.78 2.81834 139.476 5.16698 135.505 9.13391L92.8282 51.8097C95.9487 47.1413 97.2209 41.479 96.3975 35.9244C95.574 30.3698 92.7138 25.3202 88.3732 21.7578C84.0326 18.1954 78.522 16.375 72.9135 16.6509C67.305 16.9267 61.9996 19.2789 58.0295 23.25L7.33068 73.9488C5.23034 76.0491 3.56426 78.5425 2.42756 81.2866C1.29086 84.0308 0.705811 86.9719 0.705811 89.9422C0.705811 92.9125 1.29086 95.8536 2.42756 98.5978C3.56426 101.342 5.23034 103.835 7.33068 105.936Z" fill="#EDEDED"/>
<g clip-path="url(#clip0_2347_4969)">
<rect x="23.9998" y="50.3594" width="214.487" height="144.281" rx="12" fill="#FFD3B1"/>
<rect x="217" y="154.5" width="21" height="44" fill="white"/>
<path d="M23.8093 183.33C23.8093 189.942 29.1888 195.323 35.8014 195.323H186.203L184.162 198.858C181.473 203.602 184.742 209.561 190.268 209.561H260.602C266.073 209.561 269.526 203.695 266.784 198.858L258.417 184.31C257.889 183.407 256.682 183.106 255.778 183.633L253.743 180.015C254.646 179.562 254.947 178.356 254.421 177.451L239.126 151.052V60.6962C239.126 54.8539 234.084 49.915 228.113 49.915H34.5972C28.7081 49.915 23.7358 54.8539 23.7358 60.6962V109.54C23.7358 110.041 23.9351 110.522 24.2899 110.877C24.6446 111.232 25.1257 111.431 25.6274 111.431C26.1291 111.431 26.6102 111.232 26.9649 110.877C27.3197 110.522 27.5189 110.041 27.5189 109.54V60.6962C27.5189 56.9017 30.7587 53.6969 34.5972 53.6969H228.112C232.032 53.6969 235.341 56.9029 235.341 60.6962V144.524L231.578 138.028C228.838 133.199 222.033 133.194 219.289 138.028L199.877 171.64H27.5189V126.648C27.5189 126.146 27.3197 125.665 26.9649 125.311C26.6102 124.956 26.1291 124.757 25.6274 124.757C25.1257 124.757 24.6446 124.956 24.2899 125.311C23.9351 125.665 23.7358 126.146 23.7358 126.648C23.7364 127.436 23.8105 184.091 23.8093 183.33ZM226.227 193.053C223.863 193.053 222.307 191.374 222.307 189.135C222.307 183.795 230.072 183.799 230.072 189.135C230.072 190.263 228.546 193.05 226.227 193.05V193.053ZM230.373 163.962C230.373 164.263 230.373 164.49 230.298 164.642L228.262 180.621C228.021 182.776 225.996 183.409 224.795 182.202C223.837 181.245 224.322 181.118 222.081 164.564C222.005 164.415 222.005 164.189 222.005 163.962C222.005 158.993 230.373 158.89 230.373 163.956V163.962ZM188.385 191.544H35.8014C31.2761 191.544 27.5924 187.861 27.5924 183.333V175.422H197.696L188.385 191.544Z" fill="black"/>
<path d="M225.884 115.346H225.921C226.423 115.336 226.9 115.127 227.248 114.766C227.595 114.404 227.785 113.92 227.776 113.418L227.348 91.5513C227.325 90.5093 226.534 89.819 225.42 89.6968C224.919 89.7071 224.442 89.9158 224.094 90.2771C223.747 90.6384 223.557 91.1229 223.566 91.6241L223.994 113.492C224.005 113.986 224.208 114.457 224.562 114.804C224.915 115.15 225.39 115.345 225.884 115.346Z" fill="black"/>
<path d="M207.117 87.5577C207.117 87.3093 207.068 87.0633 206.973 86.8338C206.878 86.6043 206.739 86.3957 206.563 86.2201C206.387 86.0444 206.179 85.9051 205.949 85.8101C205.719 85.7152 205.473 85.6663 205.225 85.6665H144.115C143.614 85.6665 143.132 85.8658 142.778 86.2204C142.423 86.5751 142.224 87.0561 142.224 87.5577C142.224 88.0593 142.423 88.5403 142.778 88.895C143.132 89.2497 143.614 89.4489 144.115 89.4489H205.225C205.473 89.4491 205.719 89.4003 205.949 89.3053C206.179 89.2103 206.387 89.071 206.563 88.8954C206.739 88.7197 206.878 88.5112 206.973 88.2817C207.068 88.0521 207.117 87.8061 207.117 87.5577Z" fill="black"/>
<path d="M144.115 112.494H183.946C184.448 112.494 184.929 112.295 185.284 111.94C185.638 111.586 185.838 111.105 185.838 110.603C185.838 110.102 185.638 109.621 185.284 109.266C184.929 108.911 184.448 108.712 183.946 108.712H144.115C143.614 108.712 143.132 108.911 142.778 109.266C142.423 109.621 142.224 110.102 142.224 110.603C142.224 111.105 142.423 111.586 142.778 111.94C143.132 112.295 143.614 112.494 144.115 112.494Z" fill="black"/>
<path d="M80.9979 146.249H43.1169C42.6957 146.249 42.3542 146.59 42.3542 147.012V153.689C42.3542 154.11 42.6957 154.451 43.1169 154.451H80.9979C81.4191 154.451 81.7606 154.11 81.7606 153.689V147.012C81.7606 146.59 81.4191 146.249 80.9979 146.249Z" fill="black"/>
<path d="M143.979 146.249H106.098C105.676 146.249 105.335 146.59 105.335 147.012V153.689C105.335 154.11 105.676 154.451 106.098 154.451H143.979C144.4 154.451 144.741 154.11 144.741 153.689V147.012C144.741 146.59 144.4 146.249 143.979 146.249Z" fill="black"/>
<path d="M202.89 146.249H165.008C164.587 146.249 164.246 146.59 164.246 147.012V153.689C164.246 154.11 164.587 154.451 165.008 154.451H202.89C203.311 154.451 203.652 154.11 203.652 153.689V147.012C203.652 146.59 203.311 146.249 202.89 146.249Z" fill="black"/>
<path d="M72.5577 65.9897C53.0157 65.6283 38.2249 80.8014 37.708 98.8788C37.1658 117.939 52.5398 133.715 71.6005 133.715C89.8402 133.715 104.936 119.147 105.456 100.807C105.984 82.0916 91.2739 66.5246 72.5577 65.9897ZM70.7397 129.918C54.141 129.445 41.0182 115.572 41.4911 98.9897C41.9592 82.6854 55.4531 69.3415 72.4469 69.7722C89.0649 70.2456 102.145 84.0659 101.674 100.697C101.213 116.956 87.6914 130.358 70.7397 129.918Z" fill="black"/>
<path d="M69.1001 89.356V97.9604H73.2242C73.7183 97.9692 74.1892 98.1717 74.5356 98.5242C74.8819 98.8767 75.076 99.3511 75.076 99.8453C75.076 100.339 74.8819 100.814 74.5356 101.166C74.1892 101.519 73.7183 101.721 73.2242 101.73H69.1019V110.464C72.2826 110.43 75.6976 109.921 78.1934 107.928C81.9518 104.928 82.4193 99.1698 80.6964 95.3398C78.756 90.9966 73.8224 89.6716 69.1001 89.356Z" fill="black"/>
<path d="M72.2599 76.2709C59.2383 75.9017 48.3643 86.1486 47.9938 99.1727C47.6234 112.197 57.8968 123.044 70.919 123.413C83.9412 123.783 94.7953 113.532 95.1658 100.513C95.5363 87.4947 85.2833 76.6425 72.2599 76.2709ZM80.54 110.873C77.1201 113.604 72.6846 114.28 68.7569 114.28C67.9341 114.28 64.269 114.006 63.5118 113.95C63.2661 113.921 63.0284 113.845 62.8123 113.724C62.5963 113.604 62.4062 113.442 62.253 113.248C62.0997 113.054 61.9864 112.831 61.9195 112.593C61.8526 112.355 61.8334 112.106 61.863 111.861C61.9805 110.823 62.9227 110.042 63.9534 110.212C64.116 110.226 63.6883 110.194 65.3305 110.332V101.731H63.7329C63.2387 101.722 62.7678 101.519 62.4215 101.167C62.0751 100.814 61.8811 100.34 61.8811 99.8458C61.8811 99.3516 62.0751 98.8772 62.4215 98.5247C62.7678 98.1722 63.2387 97.9697 63.7329 97.9609H65.3323V89.2643C64.8269 89.2751 64.3082 89.2643 63.8154 89.286H63.7347C63.242 89.2857 62.7691 89.0925 62.4171 88.7479C62.0651 88.4032 61.862 87.9345 61.8514 87.4421C61.8408 86.9496 62.0234 86.4725 62.3602 86.113C62.697 85.7535 63.1612 85.5402 63.6534 85.5186C64.7672 85.4758 65.9202 85.4686 67.0768 85.4837C67.1304 85.4776 67.1624 85.4234 67.2166 85.4234C67.2708 85.4234 67.2985 85.4728 67.3491 85.477C74.2961 85.6047 81.2888 87.4556 84.1345 93.7888C86.8122 99.7581 85.2665 107.1 80.54 110.873Z" fill="black"/>
<path d="M188.475 195.938L188.484 195.922C197.343 180.251 201.389 173.37 205.329 166.692C205.482 166.432 205.635 166.173 205.787 165.914C209.582 159.484 213.449 152.931 221.567 138.63C222.63 136.758 224.294 135.831 225.859 135.778C227.376 135.726 229.111 136.485 230.395 138.659C233.613 144.11 240.415 155.8 253.171 177.966C252.79 178.221 252.505 178.601 252.369 179.044C252.209 179.567 252.271 180.133 252.539 180.61L254.574 184.228C254.837 184.695 255.276 185.037 255.793 185.177C256.29 185.312 256.819 185.25 257.27 185.006L265.583 199.459C265.584 199.461 265.585 199.463 265.586 199.464C267.569 202.971 265.073 207.176 261.141 207.176H190.808C186.896 207.176 184.471 202.944 186.437 199.466C186.439 199.463 186.44 199.461 186.441 199.459L188.475 195.938ZM226.766 194.668C226.815 194.668 226.862 194.666 226.91 194.663C228.841 194.608 230.268 193.443 231.119 192.381C231.572 191.816 231.928 191.204 232.176 190.622C232.409 190.077 232.611 189.409 232.611 188.749C232.611 186.893 231.918 185.345 230.749 184.273C230.338 183.896 229.883 183.592 229.404 183.358C230.166 182.644 230.654 181.63 230.787 180.475L232.795 164.712C232.862 164.474 232.885 164.269 232.896 164.138C232.912 163.939 232.912 163.731 232.912 163.603L232.912 163.577V163.571C232.912 161.689 232.107 160.172 230.851 159.172C229.648 158.213 228.134 157.801 226.715 157.811C225.297 157.82 223.793 158.251 222.601 159.207C221.359 160.203 220.545 161.707 220.545 163.577C220.545 163.583 220.545 163.589 220.545 163.596C220.545 163.696 220.544 163.891 220.562 164.088C220.574 164.213 220.597 164.414 220.665 164.647C221.479 170.666 221.924 174.458 222.215 176.933C222.318 177.804 222.401 178.511 222.474 179.096C222.608 180.168 222.725 180.97 222.909 181.571C223.154 182.372 223.52 182.831 223.918 183.23C223.962 183.274 224.007 183.316 224.052 183.358C223.573 183.592 223.119 183.896 222.708 184.272C221.539 185.344 220.846 186.893 220.846 188.749C220.846 190.339 221.404 191.837 222.49 192.947C223.582 194.063 225.093 194.668 226.766 194.668Z" fill="#E00000" stroke="black" stroke-width="4" stroke-linejoin="round"/>
</g>
<defs>
<clipPath id="clip0_2347_4969">
<rect width="245" height="233" fill="white" transform="translate(23.9998 21.6826)"/>
</clipPath>
</defs>
</svg>
