<svg width="24" height="24" viewBox="0 0 24 24" fill="none" xmlns="http://www.w3.org/2000/svg">
<path d="M6.98732 2.00026C6.72792 2.00799 6.48171 2.1165 6.30086 2.30268L2.30692 6.29744C2.21365 6.39025 2.13964 6.5005 2.08914 6.62201C2.03863 6.74352 2.01263 6.87382 2.01263 7.00541C2.01263 7.137 2.03863 7.26729 2.08914 7.38881C2.13964 7.51032 2.21365 7.62068 2.30692 7.71349L6.30086 11.7084C6.39221 11.8074 6.50262 11.8867 6.62547 11.9419C6.74832 11.9971 6.88107 12.0269 7.01572 12.0295C7.15037 12.032 7.28415 12.0073 7.40901 11.9568C7.53386 11.9063 7.64722 11.8311 7.74225 11.7357C7.83728 11.6403 7.91203 11.5265 7.96199 11.4014C8.01196 11.2763 8.03611 11.1424 8.03299 11.0078C8.02988 10.8731 7.99956 10.7404 7.94386 10.6178C7.88816 10.4952 7.80823 10.3851 7.70889 10.2942L5.42329 8.00808H20.9837C21.2447 8.00234 21.4931 7.89462 21.6757 7.70796C21.8582 7.52129 21.9605 7.27046 21.9605 7.00933C21.9605 6.7482 21.8582 6.49748 21.6757 6.31082C21.4931 6.12415 21.2447 6.01644 20.9837 6.0107H5.41549L7.70889 3.71678C7.8536 3.57685 7.95266 3.39646 7.99307 3.19924C8.03349 3.00201 8.01337 2.79716 7.93535 2.61157C7.85734 2.42598 7.72507 2.26828 7.55589 2.1592C7.38672 2.05011 7.18853 1.99471 6.98732 2.00026ZM16.9878 11.9892C16.7887 11.9893 16.5941 12.0488 16.4291 12.1603C16.2641 12.2717 16.1361 12.4299 16.0617 12.6146C15.9873 12.7993 15.9698 13.0021 16.0114 13.1969C16.0531 13.3916 16.152 13.5695 16.2955 13.7076L18.5811 15.9917H3.02068C2.88771 15.9888 2.7555 16.0125 2.6318 16.0614C2.50809 16.1102 2.3954 16.1833 2.30033 16.2764C2.20525 16.3694 2.12971 16.4805 2.07814 16.6031C2.02657 16.7258 2 16.8574 2 16.9905C2 17.1235 2.02657 17.2551 2.07814 17.3778C2.12971 17.5004 2.20525 17.6115 2.30033 17.7045C2.3954 17.7976 2.50809 17.8707 2.6318 17.9195C2.7555 17.9684 2.88771 17.992 3.02068 17.9891H18.5889L16.2955 20.283C16.2 20.3753 16.1238 20.4857 16.0715 20.6078C16.0192 20.7299 15.9918 20.8613 15.9908 20.9941C15.9899 21.1269 16.0154 21.2586 16.066 21.3814C16.1165 21.5042 16.1911 21.6158 16.2852 21.7094C16.3794 21.8031 16.4913 21.8771 16.6144 21.927C16.7375 21.9769 16.8693 22.0017 17.0021 22C17.1349 21.9983 17.266 21.97 17.3878 21.9171C17.5095 21.8641 17.6195 21.7874 17.7113 21.6913L21.7052 17.7023C21.7985 17.6095 21.8725 17.4993 21.923 17.3778C21.9735 17.2563 21.9995 17.126 21.9995 16.9944C21.9995 16.8628 21.9735 16.7325 21.923 16.611C21.8725 16.4895 21.7985 16.3791 21.7052 16.2863L17.7113 12.2915C17.6173 12.1949 17.5048 12.1183 17.3805 12.0664C17.2561 12.0144 17.1225 11.9882 16.9878 11.9892Z" fill="#009B91"/>
</svg>
