<svg width="24" height="24" viewBox="0 0 24 24" fill="none" xmlns="http://www.w3.org/2000/svg">
<g clip-path="url(#clip0_337_4572)">
<mask id="mask0_337_4572" style="mask-type:luminance" maskUnits="userSpaceOnUse" x="0" y="0" width="24" height="24">
<path d="M0 0H24V24H0V0Z" fill="white"/>
</mask>
<g mask="url(#mask0_337_4572)">
<path d="M12 24C15.1826 24 18.2348 22.7357 20.4853 20.4853C22.7357 18.2348 24 15.1826 24 12C24 8.8174 22.7357 5.76515 20.4853 3.51472C18.2348 1.26428 15.1826 0 12 0C8.8174 0 5.76515 1.26428 3.51472 3.51472C1.26428 5.76515 0 8.8174 0 12C0 15.1826 1.26428 18.2348 3.51472 20.4853C5.76515 22.7357 8.8174 24 12 24Z" fill="#0C68F4"/>
<path d="M7.45007 5L8.11007 5.66L7.45007 6.31L6.79007 5.66L7.45007 5ZM7.45007 10.84C6.70007 10.84 6.10007 10.64 5.65007 10.27C5.42827 10.0673 5.25475 9.81743 5.14226 9.5388C5.02977 9.26018 4.98118 8.95988 5.00007 8.66C5.00007 8.04 5.14007 7.41 5.42007 6.79L5.92007 6.95C5.78007 7.43 5.71007 7.85 5.71007 8.2C5.71007 9.16 6.30007 9.65 7.48007 9.65C7.92061 9.64709 8.35479 9.54453 8.75007 9.35C8.95007 9.27 9.09007 9.15 9.20007 8.99C9.30901 8.84594 9.36863 8.67061 9.37007 8.49C9.37007 8.36 9.32007 8.16 9.20007 7.89C9.09081 7.6251 8.96386 7.36786 8.82007 7.12L9.42007 6.22C9.47007 6.14 9.54007 6.16 9.62007 6.28C9.96007 6.83 10.1401 7.46 10.1401 8.16C10.1401 9.01 9.90007 9.66 9.44007 10.14C8.97007 10.61 8.31007 10.84 7.46007 10.84H7.45007ZM7.46007 13.98C7.46007 14.48 7.47007 14.76 7.48007 14.82C7.51007 15.08 7.58007 15.26 7.71007 15.34C7.81007 15.41 7.97007 15.44 8.18007 15.44H8.30007C8.37007 15.44 8.40007 15.58 8.40007 15.86V16.16C8.40007 16.52 8.37007 16.7 8.30007 16.7H8.16007C7.95007 16.7 7.76007 16.67 7.60007 16.63C7.45893 16.5999 7.32596 16.5397 7.21031 16.4534C7.09466 16.3671 6.99905 16.2567 6.93007 16.13C6.85821 16.0036 6.80116 15.8694 6.76007 15.73C6.72007 15.59 6.69007 15.43 6.67007 15.23C6.63237 14.8245 6.61901 14.4171 6.63007 14.01V13.81C6.63007 12.96 6.55007 12.89 6.40007 12L7.16007 11.52C7.27007 11.45 7.34007 11.42 7.36007 11.43C7.38007 11.45 7.40007 11.53 7.40007 11.67C7.42007 12.04 7.44007 12.07 7.46007 13.98Z" fill="white"/>
<path d="M8.26002 16.7C8.10002 16.7 8.02002 16.5 8.02002 16.08V15.94C8.02002 15.61 8.10002 15.44 8.26002 15.44H8.36002C8.56615 15.4342 8.76797 15.3796 8.9488 15.2805C9.12964 15.1813 9.2843 15.0406 9.40002 14.87C9.54657 14.6824 9.68992 14.4924 9.83002 14.3C9.95001 14.1417 10.0839 13.9944 10.23 13.86C10.2951 13.7961 10.3692 13.7422 10.45 13.7C10.5934 13.6286 10.75 13.5878 10.91 13.58C11.17 13.58 11.4 13.68 11.61 13.86C11.81 14.05 11.98 14.28 12.08 14.57C12.19 14.86 12.25 15.15 12.25 15.45C12.25 15.78 12.14 16.09 11.92 16.39C11.71 16.69 11.48 16.83 11.24 16.83C10.79 16.83 10.24 16.55 9.61002 15.99C9.41002 16.22 9.21002 16.39 8.99002 16.51C8.77002 16.64 8.56002 16.7 8.35002 16.7H8.25002H8.26002ZM11.25 15.7C11.45 15.7 11.55 15.61 11.55 15.44C11.55 15.24 11.49 15.04 11.36 14.84C11.24 14.64 11.09 14.54 10.94 14.54C10.8613 14.536 10.7828 14.5497 10.71 14.58C10.6342 14.6207 10.5664 14.6749 10.51 14.74C10.3957 14.8473 10.2949 14.9682 10.21 15.1C10.66 15.5 11.01 15.7 11.25 15.7ZM14.42 15.48H15.01C14.87 14.91 14.61 14.62 14.22 14.62C14.1514 14.6182 14.0831 14.6306 14.0194 14.6564C13.9557 14.6822 13.8981 14.7209 13.85 14.77C13.75 14.87 13.7 15 13.7 15.17C13.7 15.3 13.75 15.38 13.86 15.42C13.96 15.46 14.15 15.48 14.42 15.48ZM12.94 18.19C14.05 17.77 14.7 17.27 14.9 16.69C14.6865 16.6931 14.4729 16.6864 14.26 16.67C14.0841 16.652 13.9101 16.6185 13.74 16.57C13.58 16.52 13.44 16.46 13.34 16.37C13.237 16.2826 13.155 16.1733 13.1 16.05C13.0374 15.8978 13.0068 15.7344 13.01 15.57C13.0118 15.1009 13.1322 14.6399 13.36 14.23C13.47 14.03 13.62 13.88 13.79 13.76C13.9554 13.6456 14.1509 13.5827 14.352 13.5791C14.553 13.5756 14.7507 13.6315 14.92 13.74C15.09 13.84 15.23 13.99 15.34 14.17C15.5494 14.5669 15.6753 15.0025 15.71 15.45H16.14C16.21 15.45 16.24 15.58 16.24 15.85V16.17C16.24 16.52 16.21 16.7 16.14 16.7H15.64C15.5362 17.2775 15.2848 17.8184 14.91 18.27C14.6448 18.556 14.3206 18.7812 13.96 18.93C13.8579 18.9707 13.7498 18.9944 13.64 19C13.5046 18.9965 13.3729 18.9549 13.26 18.88L12.86 18.62C12.7759 18.5745 12.7012 18.5134 12.64 18.44C12.61 18.4 12.61 18.36 12.66 18.33C12.7 18.29 12.8 18.25 12.94 18.19Z" fill="white"/>
<path d="M18.4999 14.6999C18.4999 15.3299 18.3299 15.8199 17.9999 16.1699C17.8099 16.3536 17.5837 16.4955 17.3357 16.5868C17.0878 16.678 16.8235 16.7166 16.5599 16.6999H16.0999C15.9399 16.6999 15.8599 16.4999 15.8599 16.0799V15.9399C15.8599 15.6099 15.9399 15.4399 16.0999 15.4399H16.5799C16.9699 15.4399 17.2399 15.4299 17.4099 15.3899C17.5799 15.3499 17.6599 15.2599 17.6599 15.1099C17.6599 14.8799 17.5499 14.4899 17.3099 13.9399L17.8899 13.1899C17.9295 13.1462 17.9695 13.1029 18.0099 13.0599C18.0299 13.0599 18.0499 13.0599 18.0599 13.0899L18.1199 13.1899C18.3699 13.6199 18.4999 14.1199 18.4999 14.6899V14.6999ZM18.0399 11.3199L18.6699 11.9399L18.0399 12.5699L17.4199 11.9399L18.0399 11.3199ZM16.7099 11.3199L17.3299 11.9399L16.7099 12.5699L16.0799 11.9399L16.7099 11.3199Z" fill="white"/>
</g>
</g>
<defs>
<clipPath id="clip0_337_4572">
<rect width="24" height="24" fill="white"/>
</clipPath>
</defs>
</svg>
