<svg width="48" height="48" viewBox="0 0 48 48" fill="none" xmlns="http://www.w3.org/2000/svg">
<path d="M45.257 33.3986C45.2889 33.2188 45.2471 33.0293 45.1295 32.8791C44.0433 31.4921 42.7044 30.5952 41.1834 30.2189C41.6692 28.5749 41.9152 26.8686 41.9152 25.1356C41.9152 24.7732 41.6214 24.4793 41.259 24.4793H38.7643C39.7042 23.346 40.6749 22.1746 41.5816 20.9701C43.3226 18.657 44.0045 16.5372 43.6083 14.6694C43.2891 13.1653 42.3469 12.2463 41.8023 11.8259C41.9035 10.5913 41.2254 8.934 39.9482 8.18053C39.219 7.7505 37.7544 7.30603 35.9532 8.97318C35.4395 8.92246 34.4479 8.86743 33.4304 9.04303C33.1916 8.79525 32.9238 8.57784 32.6325 8.39718C32.8112 7.9695 32.9038 7.50918 32.9038 7.03706C32.9038 5.08856 31.3186 3.50334 29.3701 3.50334C28.999 3.50334 28.6312 3.56184 28.2812 3.675C27.4459 2.11743 25.8026 1.11084 24.0009 1.11084C22.1992 1.11084 20.5558 2.11743 19.7207 3.675C19.3705 3.56175 19.0027 3.50325 18.6318 3.50325C16.6833 3.50325 15.098 5.08846 15.098 7.03696C15.098 7.50853 15.1904 7.96837 15.3687 8.39559C14.3785 9.00478 13.6991 9.99853 13.4883 11.1409C13.1484 9.88612 12.555 8.99371 11.6757 8.99371C10.3182 8.99371 9.64161 11.1197 9.52845 13.4241C8.78464 12.752 8.01504 12.2063 7.31529 11.8591C5.94158 11.1776 5.23161 11.4559 4.87789 11.8095C4.52426 12.163 4.24583 12.873 4.92748 14.2469C5.31111 15.0202 5.93754 15.8784 6.70873 16.6932C4.23383 16.734 1.81367 17.4073 1.81367 18.8557C1.81367 20.351 4.39264 21.0202 6.94854 21.0202C7.8957 21.0202 8.79045 20.9258 9.55686 20.7549C9.13236 21.9522 9.04995 23.2435 9.34348 24.4792H6.74258C6.38014 24.4792 6.08633 24.7731 6.08633 25.1355C6.08633 27.4922 6.53745 29.7793 7.42479 31.9384C7.1997 32.7225 7.06029 33.6444 7.08898 34.7086C7.02354 34.7582 6.95933 34.81 6.89708 34.8651C6.29848 34.2404 5.40242 33.9235 4.21826 33.9235C3.07236 33.9235 2.15398 34.5065 1.56242 35.6092C1.09273 36.4849 0.844482 37.6783 0.844482 39.0604C0.844482 42.3423 2.35433 46.8886 5.18933 46.8886C6.0913 46.8886 6.9282 46.5517 7.49876 46C7.98411 46.4778 8.53526 46.7585 9.13536 46.7585C9.73545 46.7585 10.2865 46.4778 10.772 46C11.3424 46.5517 12.1793 46.8886 13.0814 46.8886C14.7231 46.8886 15.9205 45.3637 16.6376 43.4428H30.6293C31.1998 44.2181 31.9268 44.8889 32.7958 45.4311C34.3021 46.3709 36.2 46.8886 38.1399 46.8886C40.0798 46.8886 41.9778 46.371 43.484 45.4311C45.1779 44.3741 46.337 42.8316 46.8356 40.9701C47.6034 38.1048 46.9542 35.1847 45.257 33.3986ZM40.5468 33.126C40.7158 33.3663 40.887 33.6304 41.0456 33.8955C40.5393 33.7142 40.1159 33.6353 39.9678 33.6112C39.6172 33.5541 39.2845 33.7864 39.2177 34.1353C39.0824 34.8414 38.7865 35.7935 38.1398 36.6293C37.4932 35.7935 37.1973 34.8415 37.062 34.1353C37.0019 33.8218 36.7276 33.6024 36.4182 33.6024C36.3831 33.6024 36.3476 33.6052 36.3119 33.6111C36.1637 33.6352 35.7404 33.7141 35.234 33.8954C35.3927 33.6303 35.5639 33.3662 35.7329 33.1259C35.8708 32.93 35.891 32.6744 35.7854 32.4592C35.6799 32.2442 35.4654 32.1037 35.2261 32.0927C34.7975 32.0733 34.3458 32.0922 33.8507 32.1528C34.8844 31.5048 36.0657 31.237 37.3823 31.3552C37.5751 31.3728 37.7645 31.3042 37.9019 31.1687C38.0392 31.0331 38.1099 30.8441 38.0953 30.6517L37.9351 28.548H38.3447L38.1845 30.6517C38.1698 30.844 38.2405 31.0331 38.3779 31.1687C38.5152 31.3042 38.7051 31.3725 38.8974 31.3552C40.214 31.237 41.3953 31.5048 42.4289 32.1527C41.9339 32.0922 41.4823 32.0732 41.0537 32.0927C40.8143 32.1036 40.5999 32.2441 40.4944 32.4592C40.3887 32.6745 40.4089 32.9301 40.5468 33.126ZM36.0919 10.3109C36.298 10.3406 36.5061 10.2708 36.6526 10.1226C37.3249 9.44156 38.3265 8.7479 39.2812 9.31106C40.1601 9.8295 40.6699 11.2144 40.4552 11.9424C40.3692 12.2341 40.4983 12.5487 40.7623 12.6997C40.8132 12.7288 42.0133 13.4307 42.3287 14.9627C42.6324 16.4385 42.0283 18.1942 40.5329 20.1808C39.6366 21.3715 38.6666 22.5412 37.7284 23.6724C37.5051 23.9416 37.283 24.2104 37.061 24.4793H32.375C32.849 23.5578 33.3595 22.6572 33.8944 21.7478C36.9154 17.162 40.5948 16.9208 40.7471 16.913C41.1093 16.8977 41.3904 16.5918 41.3751 16.2297C41.3599 15.8677 41.054 15.5857 40.6919 15.6017C40.5761 15.6066 38.7855 15.7071 36.6193 17.1194C36.6716 17.0263 36.7238 16.9336 36.776 16.8397C37.7966 15.0015 38.7123 12.7584 38.906 11.6222C38.9668 11.2649 38.7266 10.9259 38.3693 10.865C38.0123 10.8041 37.673 11.0444 37.6121 11.4016C37.4455 12.3788 36.5556 14.5326 35.6285 16.2025C35.5502 16.3437 35.4715 16.484 35.3928 16.6235C35.4499 14.2417 34.6596 12.578 34.6055 12.4672C34.4465 12.1423 34.0551 12.0082 33.7298 12.1663C33.4045 12.3244 33.2688 12.7167 33.4258 13.0425C33.5007 13.1977 35.231 16.8937 32.7675 21.0741C32.7656 21.0772 32.7642 21.0806 32.7623 21.0838C32.103 22.2049 31.478 23.3159 30.9064 24.4795H28.684C29.215 23.0492 29.8713 21.5281 30.6446 19.9422C30.6473 19.9366 30.65 19.9311 30.6525 19.9254L30.7908 19.6216C31.6793 17.673 32.4468 15.9901 31.6833 13.1315C31.4443 12.2367 31.5241 11.5809 31.9271 11.1265C32.8373 10.1005 35.2426 10.1901 36.0919 10.3109ZM22.2868 20.5699C21.4573 18.0805 20.3955 16.1528 19.9715 15.4303C20.5243 16.2495 21.3161 16.8819 22.2277 17.2434C22.6669 18.2018 23.0541 19.1745 23.3789 20.1385C23.4688 20.4055 23.7191 20.5853 24.0008 20.5853C24.2825 20.5853 24.5328 20.4055 24.6227 20.1386C24.9477 19.1739 25.335 18.2014 25.7739 17.2435C26.6842 16.8826 27.4751 16.2514 28.0278 15.4339C27.398 16.5067 25.3978 20.1741 24.7787 24.4375L22.2868 20.5699ZM23.8094 17.5787C23.8731 17.5812 23.9366 17.585 24.0007 17.585C24.0649 17.585 24.1283 17.5812 24.1921 17.5787C24.1271 17.7325 24.063 17.8867 24.0007 18.0409C23.9384 17.8866 23.8744 17.7325 23.8094 17.5787ZM29.3068 15.8532C29.6797 15.9627 30.0691 16.0207 30.4638 16.0207C30.5227 16.0207 30.5815 16.0177 30.6404 16.0152C30.5111 17.0706 30.0947 17.9849 29.5968 19.0769L29.4613 19.3747C28.5884 21.1652 27.8595 22.8791 27.2872 24.4794H26.099C26.7834 20.0095 29.054 16.2599 29.3068 15.8532ZM16.5081 9.288C16.6947 9.2144 16.8374 9.05953 16.8954 8.86762C16.9535 8.67562 16.9206 8.46768 16.8062 8.30306C16.5472 7.9305 16.4104 7.49278 16.4104 7.03734C16.4104 5.81259 17.4068 4.81612 18.6316 4.81612C19.0168 4.81612 19.3961 4.91615 19.7287 5.10553C19.8969 5.20115 20.0987 5.21784 20.2802 5.151C20.4618 5.08415 20.6045 4.94062 20.6705 4.75865C21.1763 3.36196 22.5146 2.42362 24.0007 2.42362C25.4869 2.42362 26.8251 3.36196 27.331 4.75865C27.3969 4.94053 27.5397 5.08415 27.7213 5.151C27.9027 5.21775 28.1046 5.20115 28.2728 5.10543C28.6052 4.91615 28.9846 4.81612 29.3699 4.81612C30.5946 4.81612 31.5911 5.8125 31.5911 7.03734C31.5911 7.49278 31.4542 7.9305 31.1953 8.30315C31.0808 8.46778 31.048 8.67581 31.106 8.86771C31.1641 9.05962 31.3068 9.2145 31.4933 9.28809C31.6481 9.34921 31.796 9.42506 31.937 9.51215C31.5653 9.69871 31.2255 9.94031 30.9471 10.2535C30.2374 11.0521 30.0585 12.1342 30.4153 13.4702C30.5338 13.9137 30.6093 14.321 30.6486 14.7022C30.5871 14.7063 30.5255 14.7084 30.4637 14.7084C29.6816 14.7084 28.9288 14.3782 28.3984 13.8023C28.2448 13.6357 28.0162 13.5599 27.7934 13.6023C27.5707 13.6445 27.3856 13.7987 27.3037 14.01C26.7796 15.3634 25.4522 16.2727 24.0006 16.2727C22.5492 16.2727 21.2217 15.3634 20.6975 14.01C20.6157 13.7987 20.4305 13.6446 20.2079 13.6023C19.985 13.5603 19.7565 13.6357 19.6029 13.8024C19.0725 14.3782 18.3198 14.7084 17.5377 14.7084C15.9896 14.7084 14.7302 13.449 14.7302 11.901C14.7304 10.7395 15.4281 9.714 16.5081 9.288ZM17.5378 16.0207C17.9324 16.0207 18.3217 15.9627 18.6947 15.8532C18.7691 15.9731 19.0514 16.4366 19.4251 17.1603C18.6152 16.6416 17.6825 16.3082 16.6861 16.2016C15.6253 16.0882 14.5736 16.2282 13.6038 16.5948C13.756 15.857 13.84 15.011 13.84 14.1289C13.84 13.9867 13.8376 13.8443 13.8335 13.7024C14.503 15.0736 15.9118 16.0207 17.5378 16.0207ZM11.6755 10.3266C11.9514 10.5537 12.5275 11.8525 12.5275 14.1289C12.5275 15.1439 12.4054 16.1099 12.1955 16.8443C11.9005 16.1815 11.4205 15.4683 10.8423 14.7829C10.831 14.5668 10.8235 14.3484 10.8235 14.1289C10.8235 11.8525 11.3996 10.5537 11.6755 10.3266ZM5.82008 12.752C6.17642 12.7183 7.50167 13.2286 9.11108 14.8381C10.7207 16.4477 11.2317 17.7734 11.1972 18.1292C10.8408 18.162 9.51561 17.6525 7.9062 16.043C6.29661 14.4335 5.78548 13.1077 5.82008 12.752ZM3.14614 18.8559C3.37329 18.58 4.67211 18.004 6.94845 18.0039C7.38439 18.0039 7.81076 18.0272 8.22083 18.0705C8.72679 18.4629 9.23042 18.7878 9.70226 19.0219C9.85545 19.0979 10.0004 19.1619 10.1375 19.2153C9.38379 19.5198 8.19861 19.7078 6.94854 19.7078C4.67211 19.7079 3.37329 19.1318 3.14614 18.8559ZM12.1396 19.0715C13.3085 17.9025 14.9147 17.3324 16.5466 17.5066C17.8942 17.6507 19.0562 18.28 19.8701 19.2939L17.1983 21.9656C16.9421 22.2218 16.9421 22.6374 17.1983 22.8937C17.3265 23.0218 17.4944 23.0858 17.6624 23.0858C17.8303 23.0858 17.9983 23.0217 18.1265 22.8937L20.6177 20.4025L23.2444 24.4793H10.7025C10.136 22.615 10.6763 20.5347 12.1396 19.0715ZM7.41139 25.7918H40.59C40.5339 27.2357 40.2922 28.6554 39.8701 30.0265C39.7637 30.0211 39.6568 30.0172 39.5491 30.0163L39.7071 27.9417C39.721 27.7596 39.6583 27.5798 39.5342 27.4458C39.41 27.3117 39.2355 27.2356 39.0529 27.2356H37.227C37.0443 27.2356 36.8698 27.3117 36.7457 27.4458C36.6215 27.5797 36.5588 27.7595 36.5727 27.9417L36.7308 30.0163C34.528 30.0346 32.6107 31.0144 31.1504 32.8791C31.0327 33.0293 30.9908 33.2187 31.0228 33.3986C29.7356 34.7533 29.0525 36.7604 29.132 38.9013H17.4244C17.4059 37.587 17.1597 36.4511 16.7082 35.6094C16.1166 34.5066 15.1983 33.9237 14.0524 33.9237C12.8682 33.9237 11.9721 34.2406 11.3735 34.8652C11.2808 34.7831 11.1844 34.7076 11.0844 34.6377C11.461 33.5611 12.074 32.6069 12.9112 31.7957C13.041 31.67 13.1132 31.4963 13.1107 31.3156C13.1084 31.1349 13.0315 30.9633 12.8985 30.841L10.3743 28.5226C10.1363 28.3041 9.77464 28.2912 9.52198 28.4922C9.46704 28.5359 8.7972 29.082 8.17367 30.1638C7.72479 28.7519 7.46904 27.2887 7.41139 25.7918ZM9.94751 29.9126L11.5178 31.355C10.7926 32.1744 10.2425 33.1024 9.87392 34.1255C9.63842 34.0785 9.39223 34.0537 9.13536 34.0537C8.88101 34.0537 8.63717 34.0779 8.40373 34.124C8.48361 31.9125 9.40423 30.5367 9.94751 29.9126ZM5.18942 45.5763C3.65904 45.5763 2.15708 42.3488 2.15708 39.0606C2.15708 37.9109 2.35667 36.9056 2.7192 36.2298C3.07789 35.5611 3.5683 35.2361 4.21845 35.2361C5.33276 35.2361 5.82533 35.5766 6.07554 35.9238C5.59629 36.8164 5.34317 38.0062 5.34317 39.3791C5.34317 41.3676 5.84876 43.485 6.69692 44.9394C6.38501 45.3247 5.81079 45.5763 5.18942 45.5763ZM9.13536 45.4462C8.05254 45.4462 6.65558 42.5041 6.65558 39.3791C6.65558 38.1681 6.87289 37.155 7.28408 36.4496C7.70904 35.7205 8.31458 35.3661 9.13545 35.3661C9.95633 35.3661 10.5619 35.7205 10.9868 36.4496C11.3979 37.155 11.6153 38.1681 11.6153 39.3791C11.6152 42.5041 10.2182 45.4462 9.13536 45.4462ZM13.0813 45.5763C12.4598 45.5763 11.8856 45.3247 11.5738 44.9395C12.422 43.4851 12.9276 41.3676 12.9276 39.3791C12.9276 38.0062 12.6745 36.8163 12.1953 35.9238C12.4455 35.5766 12.938 35.2361 14.0524 35.2361C14.7025 35.2361 15.1929 35.5611 15.5516 36.2298C15.914 36.9055 16.1137 37.9109 16.1137 39.0606C16.1136 42.3488 14.6117 45.5763 13.0813 45.5763ZM17.0404 42.1305C17.1975 41.4945 17.3072 40.8443 17.3684 40.2138H29.2756C29.3214 40.4659 29.3766 40.7183 29.4442 40.9703C29.552 41.3729 29.6927 41.7594 29.861 42.1305H17.0404ZM45.5678 40.6307C44.5897 44.2811 40.9551 45.5763 38.1398 45.5763C35.3246 45.5763 31.69 44.281 30.7118 40.6307C29.9607 37.8272 30.7713 34.9978 32.6824 33.7008C33.1498 33.5917 33.5748 33.5126 33.9643 33.4629C33.5862 34.1243 33.2121 34.9241 33.199 35.5177C33.1928 35.7965 33.3635 36.0487 33.6245 36.1466C33.8854 36.2446 34.1797 36.1671 34.3586 35.9532C34.7339 35.5043 35.3846 35.2117 35.9294 35.0471C36.1964 36 36.7074 37.1428 37.685 38.0827C37.8121 38.2049 37.976 38.2659 38.1399 38.2659C38.3039 38.2659 38.4678 38.2049 38.5948 38.0827C39.5724 37.1427 40.0835 35.9999 40.3505 35.0471C40.8952 35.2117 41.546 35.5043 41.9212 35.9532C42.1 36.1671 42.3944 36.2446 42.6554 36.1466C42.9164 36.0487 43.0869 35.7965 43.0807 35.5177C43.0676 34.924 42.6936 34.1242 42.3155 33.4629C42.705 33.5127 43.13 33.5918 43.5974 33.7008C45.5085 34.9978 46.319 37.8272 45.5678 40.6307Z" fill="#292D32"/>
</svg>
