<svg width="48" height="48" viewBox="0 0 48 48" fill="none" xmlns="http://www.w3.org/2000/svg">
<path d="M31.0164 19.5877L30.9198 20.5024C30.8791 20.8885 31.1591 21.2346 31.5453 21.2754C31.5704 21.278 31.5953 21.2794 31.6199 21.2794C31.9752 21.2794 32.2802 21.0111 32.3184 20.6499L32.4149 19.7352C32.4556 19.3491 32.1757 19.0029 31.7894 18.9622C31.4031 18.9231 31.0573 19.2016 31.0164 19.5877Z" fill="#015248"/>
<path d="M30.2385 14.6351C30.3775 14.8029 30.5782 14.8895 30.7802 14.8895C30.9383 14.8895 31.0973 14.8364 31.2285 14.7277C31.5275 14.4798 31.5689 14.0367 31.3212 13.7376L30.7297 13.024C30.4818 12.7249 30.0384 12.6836 29.7396 12.9314C29.4406 13.1792 29.3991 13.6225 29.6469 13.9214L30.2385 14.6351Z" fill="#015248"/>
<path d="M33.4648 17.8336C33.63 17.8336 33.796 17.7756 33.9297 17.6577L34.8397 16.8548C35.1309 16.5979 35.1586 16.1536 34.9018 15.8624C34.6449 15.5713 34.2006 15.5435 33.9093 15.8003L32.9993 16.6032C32.7081 16.8601 32.6803 17.3044 32.9372 17.5956C33.0762 17.7532 33.27 17.8336 33.4648 17.8336Z" fill="#015248"/>
<path d="M43.0563 21.5808V21.5806C43.3647 22.6108 44.3332 23.3648 45.4768 23.3648C46.8682 23.3648 48 22.249 48 20.8775C48 20.399 47.8593 19.9354 47.602 19.5393C47.8593 19.1432 48 18.6797 48 18.2012C48 16.8296 46.8682 15.7138 45.4768 15.7138C44.3332 15.7138 43.3647 16.4678 43.0563 17.4981H38.311C37.001 12.873 32.6726 9.46875 27.5491 9.46875H18.4488C12.462 9.46875 7.56084 14.1166 7.29244 19.9293L5.22853 17.9059V14.3653C5.22853 13.9769 4.91372 13.6622 4.52541 13.6622C4.13709 13.6622 3.82228 13.9769 3.82228 14.3653V16.5273L1.40625 14.1588V11.9561C1.40625 11.5677 1.09144 11.253 0.703125 11.253C0.314812 11.253 0 11.5677 0 11.9561V14.4542C0 14.6431 0.0760313 14.824 0.210938 14.9562L1.89366 16.6058H0.703125C0.314812 16.6058 0 16.9206 0 17.309C0 17.6974 0.314812 18.0121 0.703125 18.0121H3.32803L4.62375 19.2823H2.52319C2.13487 19.2823 1.82006 19.597 1.82006 19.9854C1.82006 20.3738 2.13487 20.6886 2.52319 20.6886H6.05822L7.28025 21.8866V25.041L7.26412 25.0252C7.00209 24.7681 6.62803 24.6492 6.26409 24.7073C5.89884 24.7655 5.59247 24.9853 5.42344 25.3105C3.83962 28.3582 4.4325 32.0303 6.89831 34.4486H2.04131C0.91575 34.4485 0 35.3643 0 36.4899C0 37.6156 0.91575 38.5312 2.04131 38.5312H45.9586C47.0843 38.5312 47.9999 37.6155 47.9999 36.4899C47.9999 35.3644 47.0842 34.4486 45.9586 34.4486H43.0879C43.2061 34.1037 43.2678 33.7391 43.2678 33.3675C43.2678 32.3618 42.8186 31.4578 42.1081 30.8382C42.5941 28.9773 42.3771 27.0279 41.4846 25.3106C41.3155 24.9854 41.0093 24.7657 40.644 24.7073C40.28 24.6493 39.906 24.768 39.644 25.0252L38.7176 25.9333V21.5808H43.0563ZM27.5491 10.875C32.932 10.875 37.3114 15.1621 37.3114 20.4315V27.3117L35.4669 29.1199C35.3901 29.104 35.3113 29.0958 35.232 29.0958H29.6173V20.4315C29.6173 16.3349 27.3158 12.7565 23.9157 10.875H27.5491ZM18.7205 30.2296C18.9582 27.8816 20.9902 26.0414 23.454 26.0414C25.4768 26.0414 27.2497 27.2891 27.9232 29.0958H22.2081C21.8348 29.0958 21.482 29.2757 21.2645 29.5771C21.0512 29.8725 20.9919 30.2544 21.106 30.5986C21.6192 32.1466 22.6208 33.4874 23.9199 34.4486H20.6996C20.8184 34.1025 20.8812 33.7373 20.8812 33.3675C20.8812 31.9464 19.9852 30.7283 18.7205 30.2296ZM19.475 33.3674C19.475 33.7584 19.3599 34.128 19.1427 34.4485H15.7521C15.535 34.1278 15.421 33.7574 15.421 33.3674C15.421 32.2794 16.3303 31.3942 17.448 31.3942C18.5657 31.3942 19.475 32.2793 19.475 33.3674ZM22.5671 30.5019H28.9124C28.913 30.5019 28.9136 30.502 28.9142 30.502C28.9147 30.502 28.9154 30.5019 28.916 30.5019H34.057L30.4346 34.0531C30.3175 34.1679 30.2288 34.3028 30.1705 34.4485H27.1753C27.1498 34.4389 27.1237 34.4303 27.0966 34.4236C25.0403 33.9148 23.3352 32.4286 22.5671 30.5019ZM18.4488 10.875C23.8317 10.875 28.2111 15.1621 28.2111 20.4315V26.8418C27.8297 26.3879 27.3834 25.9912 26.8872 25.664V20.4315C26.8872 15.8625 23.1018 12.1452 18.4488 12.1452C16.2788 12.1452 14.217 12.9523 12.6432 14.4179C12.3591 14.6825 12.3432 15.1274 12.6079 15.4117C12.8725 15.6957 13.3175 15.7117 13.6016 15.447C14.9142 14.2247 16.6357 13.5515 18.4488 13.5515C22.3263 13.5515 25.481 16.6378 25.481 20.4315V24.9732C24.8429 24.7545 24.1604 24.6352 23.454 24.6352C20.2967 24.6352 17.6877 26.9804 17.3332 29.9908C16.002 30.0341 14.8608 30.8266 14.3311 31.9531L12.3808 30.0412L13.7308 28.7177H16.1737C16.5621 28.7177 16.8769 28.403 16.8769 28.0146C16.8769 27.6262 16.5621 27.3114 16.1737 27.3114H15.1653L16.6659 25.8403C16.8008 25.7081 16.8769 25.5271 16.8769 25.3383V23.554C16.8769 23.1656 16.5621 22.8509 16.1737 22.8509C15.7854 22.8509 15.4706 23.1656 15.4706 23.554V25.043L14.1468 26.3407V25.3383C14.1468 24.9499 13.832 24.6352 13.4437 24.6352C13.0553 24.6352 12.7405 24.9499 12.7405 25.3383V27.7193L11.4167 29.0171V20.4315C11.4167 19.3344 11.6725 18.2862 12.1772 17.316C12.3563 16.9715 12.2223 16.547 11.8778 16.3677C11.5334 16.1885 11.1087 16.3227 10.9297 16.6671C10.3197 17.8398 10.0105 19.1063 10.0105 20.4315V27.7174L8.68669 26.4196V20.4315H8.6865C8.6865 15.1621 13.0658 10.875 18.4488 10.875ZM6.52163 26.2665L14.0252 33.6224C14.047 33.9043 14.105 34.182 14.1964 34.4485H9.20522C8.72559 34.1716 8.28122 33.8351 7.88391 33.4455C5.94422 31.544 5.41678 28.6979 6.52163 26.2665ZM45.9586 35.8549C46.3088 35.8548 46.5938 36.1397 46.5938 36.4899C46.5938 36.8401 46.3088 37.125 45.9587 37.125H2.04131C1.69116 37.125 1.40625 36.8401 1.40625 36.4899C1.40625 36.1398 1.69116 35.8549 2.04131 35.8549H41.7132C41.7602 35.8645 41.8078 35.8699 41.8555 35.8699C41.9039 35.8699 41.9522 35.8647 41.9996 35.8549H45.9586ZM41.8615 33.3674C41.8615 33.755 41.7437 34.129 41.5282 34.4485H38.1393C37.9222 34.1279 37.8076 33.758 37.8076 33.3674C37.8076 32.2794 38.7169 31.3942 39.8346 31.3942C40.9523 31.3942 41.8615 32.2793 41.8615 33.3674ZM40.3864 26.2665C40.9402 27.4852 41.0913 28.8278 40.8278 30.1327C40.5132 30.0389 40.1798 29.988 39.8347 29.988C37.9416 29.988 36.4014 31.504 36.4014 33.3675C36.4014 33.737 36.4642 34.1023 36.583 34.4486H32.04L40.3864 26.2665ZM38.7143 20.1745C38.7042 19.7446 38.6682 19.3209 38.6088 18.9044H43.6567V18.9043C44.0452 18.9043 44.3599 18.5896 44.3599 18.2012C44.3599 17.605 44.861 17.1201 45.4768 17.1201C46.0927 17.1201 46.5938 17.6049 46.5938 18.2012C46.5938 18.5075 46.457 18.8012 46.2185 19.0071C46.0638 19.1407 45.9747 19.3349 45.9747 19.5393C45.9747 19.7438 46.0636 19.938 46.2184 20.0716C46.4604 20.2806 46.5938 20.5669 46.5938 20.8777C46.5938 21.4738 46.0927 21.9588 45.4768 21.9588C44.861 21.9588 44.3599 21.4738 44.3599 20.8777C44.3599 20.4893 44.0452 20.1745 43.6567 20.1745H38.7143Z" fill="#015248"/>
<path d="M18.4488 22.4729C20.091 22.4729 21.427 21.157 21.427 19.5394C21.427 17.9219 20.091 16.606 18.4488 16.606C16.8066 16.606 15.4705 17.9219 15.4705 19.5394C15.4706 21.157 16.8066 22.4729 18.4488 22.4729ZM18.4488 18.0122C19.3156 18.0122 20.0208 18.6973 20.0208 19.5394C20.0208 20.3815 19.3156 21.0667 18.4488 21.0667C17.582 21.0667 16.8768 20.3815 16.8768 19.5394C16.8768 18.6973 17.5821 18.0122 18.4488 18.0122Z" fill="#015248"/>
</svg>
